<?xml version="1.0" standalone="no"?>
<!DOCTYPE svg PUBLIC "-//W3C//DTD SVG 20010904//EN"
 "http://www.w3.org/TR/2001/REC-SVG-20010904/DTD/svg10.dtd">
<svg version="1.0" xmlns="http://www.w3.org/2000/svg"
 width="512.000000pt" height="512.000000pt" viewBox="0 0 512.000000 512.000000"
 preserveAspectRatio="xMidYMid meet">
<metadata>
Created by potrace 1.11, written by Peter Selinger 2001-2013
</metadata>
<g transform="translate(0.000000,512.000000) scale(0.100000,-0.100000)"
fill="#000000" stroke="none">
<path d="M2425 4825 c-1012 -156 -1863 -284 -1891 -284 -71 -1 -135 -26 -187
-72 -65 -56 -77 -95 -76 -241 0 -68 -60 -922 -135 -1919 -75 -988 -136 -1820
-136 -1850 0 -101 73 -196 168 -218 67 -16 2966 -233 3032 -228 77 6 137 38
234 123 l84 73 454 3 c442 3 454 4 493 25 81 43 121 107 131 211 l6 58 66 12
c128 22 202 110 202 242 l0 67 59 12 c112 22 191 113 191 218 0 26 -133 914
-295 1973 -281 1836 -296 1926 -323 1969 -38 63 -104 102 -179 106 -41 3 -602
-80 -1898 -280z m-11 -1725 c875 -66 1611 -123 1635 -126 l43 -6 -7 -116 c-4
-64 -8 -118 -9 -119 -1 -1 -740 54 -1641 122 -902 69 -1651 125 -1663 125 -24
0 -24 1 -18 88 11 144 13 152 43 152 14 0 742 -54 1617 -120z m-5 -642 l1634
-123 -7 -120 c-4 -65 -8 -120 -9 -120 -1 -1 -749 55 -1662 125 l-1660 126 2
59 c2 33 6 88 9 122 5 61 6 62 32 58 15 -2 762 -60 1661 -127z m-502 -601
c667 -51 1215 -95 1218 -99 6 -5 -10 -227 -17 -233 -2 -1 -2405 179 -2455 185
-2 0 -1 19 2 43 3 23 7 77 11 120 3 49 10 77 17 77 7 -1 557 -42 1224 -93z"/>
</g>
</svg>
